# xmcd
#
# Track frame offsets:
#	150
#	10038
#	29600
#	51025
#	60888
#	81275
#	100025
#	108963
#	133038
#	143013
#	169788
#	182550
#	205400
#
# Disc length: 3010 seconds
#
# Revision: 0
# Processed by: cddbd v1.4PL0 Copyright (c) Steve Scherf et al.
# Submitted via: dBpowerAMP V4.0
#
DISCID=a30bc00d
DTITLE=Katie Webster - 200% joy
DYEAR=1983
DGENRE=Blues
TTITLE0=Baby come on
TTITLE1=I wisch
TTITLE2=Came home this morning
TTITLE3=Texas boogie stew
TTITLE4=I found a love
TTITLE5=The dock of the bay
TTITLE6=Rockin' the subway
TTITLE7=Million dollar secret
TTITLE8=I love you, yes i do
TTITLE9=Baby please
TTITLE10=White silver sand
TTITLE11=Tomorrow night
TTITLE12=Lord, don't move the mountain
EXTD=
EXTT0=
EXTT1=
EXTT2=
EXTT3=
EXTT4=
EXTT5=
EXTT6=
EXTT7=
EXTT8=
EXTT9=
EXTT10=
EXTT11=
EXTT12=
PLAYORDER=
